<svg xmlns="http://www.w3.org/2000/svg" width="1080" height="1080" viewBox="0 0 1080 1080" fill="none">
  <rect width="1080" height="1080" fill="#FFFFFF"/>
  <g transform="translate(340, 220) scale(5)">
    <svg width="80" height="80" viewBox="0 0 80 80" fill="none">
      <circle cx="40" cy="40" r="38" stroke="rgba(10,22,40,0.28)" stroke-width="0.6"/>
      <g stroke="#0A1628" stroke-width="0.9">
      <line x1="74.0" y1="40.0" x2="76.0" y2="40.0"/>
      <line x1="72.84147809382833" y1="48.7998475334857" x2="74.77332974640646" y2="49.31748562369074"/>
      <line x1="69.44486372867092" y1="57.0" x2="71.17691453623979" y2="58.0"/>
      <line x1="64.04163056034261" y1="64.04163056034261" x2="65.45584412271572" y2="65.45584412271572"/>
      <line x1="57.0" y1="69.44486372867091" x2="58.0" y2="71.17691453623979"/>
      <line x1="48.7998475334857" y1="72.84147809382833" x2="49.31748562369074" y2="74.77332974640646"/>
      <line x1="40.0" y1="74.0" x2="40.0" y2="76.0"/>
      <line x1="31.20015246651429" y1="72.84147809382833" x2="30.68251437630925" y2="74.77332974640646"/>
      <line x1="23.000000000000007" y1="69.44486372867092" x2="22.000000000000007" y2="71.17691453623979"/>
      <line x1="15.958369439657385" y1="64.04163056034261" x2="14.54415587728429" y2="65.45584412271572"/>
      <line x1="10.555136271329083" y1="57.0" x2="8.823085463760208" y2="58.0"/>
      <line x1="7.1585219061716785" y1="48.79984753348572" x2="5.2266702535935465" y2="49.31748562369076"/>
      <line x1="6.0" y1="40.00000000000001" x2="4.0" y2="40.00000000000001"/>
      <line x1="7.1585219061716785" y1="31.200152466514293" x2="5.226670253593539" y2="30.68251437630925"/>
      <line x1="10.555136271329086" y1="22.999999999999996" x2="8.823085463760211" y2="21.999999999999996"/>
      <line x1="15.958369439657378" y1="15.958369439657385" x2="14.544155877284282" y2="14.54415587728429"/>
      <line x1="22.999999999999986" y1="10.555136271329097" x2="21.999999999999986" y2="8.823085463760219"/>
      <line x1="31.200152466514297" y1="7.1585219061716785" x2="30.682514376309257" y2="5.226670253593539"/>
      <line x1="39.99999999999999" y1="6.0" x2="39.99999999999999" y2="4.0"/>
      <line x1="48.79984753348569" y1="7.158521906171671" x2="49.31748562369073" y2="5.226670253593539"/>
      <line x1="57.0" y1="10.555136271329086" x2="58.0" y2="8.823085463760211"/>
      <line x1="64.04163056034261" y1="15.958369439657378" x2="65.4558441227157" y2="14.544155877284282"/>
      <line x1="69.4448637286709" y1="22.999999999999986" x2="71.17691453623978" y2="21.999999999999986"/>
      <line x1="72.84147809382833" y1="31.200152466514297" x2="74.77332974640646" y2="30.682514376309257"/>
      </g>
      <circle cx="40" cy="40" r="30" stroke="#0A1628" stroke-width="1.2"/>
      <circle cx="40" cy="40" r="22" stroke="#0A1628" stroke-width="1.4" fill="none"/>
      <ellipse cx="40" cy="40" rx="22" ry="8" stroke="#0A1628" stroke-width="0.9"/>
      <ellipse cx="40" cy="40" rx="22" ry="15" stroke="#0A1628" stroke-width="0.7"/>
      <ellipse cx="40" cy="40" rx="14" ry="22" stroke="#0A1628" stroke-width="0.7"/>
      <line x1="40" y1="18" x2="40" y2="62" stroke="#0A1628" stroke-width="0.9"/>
      <path d="M 40 18 A 18 22 0 0 1 40 62" stroke="#0057FF" stroke-width="1.8" fill="none" stroke-linecap="round"/>
      <path d="M 30 46 L 40 36 L 50 46" stroke="#0057FF" stroke-width="2.2" stroke-linecap="round" stroke-linejoin="round" fill="none"/>
      <circle cx="40" cy="18" r="1.8" fill="#0057FF"/>
    </svg>
  </g>
  <text x="540" y="780" text-anchor="middle" font-family="Georgia, 'Times New Roman', serif" font-size="120" font-weight="600" letter-spacing="22" fill="#0A1628">ICEN</text>
  <text x="540" y="840" text-anchor="middle" font-family="Helvetica, Arial, sans-serif" font-size="22" font-weight="600" letter-spacing="7" fill="#0057FF">INTERNATIONAL COUNCIL</text>
  <text x="540" y="878" text-anchor="middle" font-family="Helvetica, Arial, sans-serif" font-size="22" font-weight="600" letter-spacing="7" fill="#5B6B7F">FOR EMERGING NATIONS</text>
</svg>